<svg width="19" height="22" viewBox="0 0 19 22" fill="none" xmlns="http://www.w3.org/2000/svg">
<path d="M17.3066 0.589844H1.55664C0.937891 0.589844 0.431641 1.03923 0.431641 1.59465V21.0546C0.431641 21.61 0.797266 21.7514 1.25289 21.3626L8.97602 14.7884C9.15602 14.637 9.45414 14.637 9.63414 14.7834L17.6048 21.3778C18.0604 21.7565 18.4316 21.61 18.4316 21.0546V1.59465C18.4316 1.03923 17.931 0.589844 17.3066 0.589844ZM16.7441 18.6108L10.776 13.6726C10.3598 13.3292 9.83664 13.1575 9.30789 13.1575C8.76789 13.1575 8.23352 13.3343 7.81727 13.6877L2.11914 18.5401V2.10463H16.7441V18.6108Z" fill="black" stroke="black" stroke-width="0.7"/>
</svg>
