<svg width="40" height="40" viewBox="0 0 40 40" fill="none" xmlns="http://www.w3.org/2000/svg">
<path d="M0 20C0 8.95431 8.95431 0 20 0C31.0457 0 40 8.95431 40 20C40 31.0457 31.0457 40 20 40C8.95431 40 0 31.0457 0 20Z" fill="#C6C6C6"/>
<path fill-rule="evenodd" clip-rule="evenodd" d="M21.803 10H12.6295C11.7295 10 11 10.7295 11 11.6294V25.1273C11 26.0272 11.7295 26.7567 12.6295 26.7567H16.4048V28.3703C16.4048 29.2703 17.1343 29.9998 18.0343 29.9998H27.2078C28.1077 29.9998 28.8372 29.2703 28.8372 28.3703V14.332C28.8372 13.432 28.1077 12.7025 27.2078 12.7025H23.4324V11.6295C23.4324 10.7295 22.7029 10 21.803 10ZM23.4324 13.7836V25.1273C23.4324 26.0272 22.7029 26.7567 21.803 26.7567H17.4859V28.3703C17.4859 28.6732 17.7314 28.9187 18.0343 28.9187H27.2078C27.5106 28.9187 27.7561 28.6732 27.7561 28.3703V14.332C27.7561 14.0291 27.5106 13.7836 27.2078 13.7836H23.4324ZM17.4859 25.6756H21.803C22.1058 25.6756 22.3513 25.4301 22.3513 25.1273V11.6295C22.3513 11.3266 22.1058 11.0811 21.803 11.0811H12.6295C12.3266 11.0811 12.0811 11.3266 12.0811 11.6294V25.1273C12.0811 25.4301 12.3266 25.6756 12.6295 25.6756H16.4048V25.6752H17.4859V25.6756Z" fill="white"/>
</svg>
