<svg width="20" height="21" viewBox="0 0 20 21" fill="none" xmlns="http://www.w3.org/2000/svg">
<mask id="path-1-outside-1_1409_6493" maskUnits="userSpaceOnUse" x="0" y="-0.351562" width="20" height="22" fill="black">
<rect fill="white" y="-0.351562" width="20" height="22"/>
<path fill-rule="evenodd" clip-rule="evenodd" d="M11.803 0.648438H2.62945C1.72953 0.648438 1 1.37797 1 2.27789V15.7757C1 16.6756 1.72953 17.4052 2.62945 17.4052H6.40625V19.0189C6.40625 19.9188 7.13578 20.6483 8.0357 20.6483H17.2092C18.1091 20.6483 18.8387 19.9188 18.8387 19.0189V4.98053C18.8387 4.0806 18.1091 3.35107 17.2092 3.35107H13.4324V2.27789C13.4324 1.37797 12.7029 0.648438 11.803 0.648438ZM13.4324 4.43215V15.7757C13.4324 16.6756 12.7029 17.4052 11.803 17.4052H7.48733V19.0189C7.48733 19.3217 7.73284 19.5673 8.0357 19.5673H17.2092C17.5121 19.5673 17.7576 19.3217 17.7576 19.0189V4.98053C17.7576 4.67767 17.5121 4.43215 17.2092 4.43215H13.4324ZM7.48733 16.3241H11.803C12.1058 16.3241 12.3513 16.0786 12.3513 15.7757V2.27789C12.3513 1.97503 12.1058 1.72952 11.803 1.72952H2.62945C2.32659 1.72952 2.08108 1.97503 2.08108 2.27789V15.7757C2.08108 16.0786 2.32659 16.3241 2.62945 16.3241H6.40625V16.3236H7.48733V16.3241Z"/>
</mask>
<path fill-rule="evenodd" clip-rule="evenodd" d="M11.803 0.648438H2.62945C1.72953 0.648438 1 1.37797 1 2.27789V15.7757C1 16.6756 1.72953 17.4052 2.62945 17.4052H6.40625V19.0189C6.40625 19.9188 7.13578 20.6483 8.0357 20.6483H17.2092C18.1091 20.6483 18.8387 19.9188 18.8387 19.0189V4.98053C18.8387 4.0806 18.1091 3.35107 17.2092 3.35107H13.4324V2.27789C13.4324 1.37797 12.7029 0.648438 11.803 0.648438ZM13.4324 4.43215V15.7757C13.4324 16.6756 12.7029 17.4052 11.803 17.4052H7.48733V19.0189C7.48733 19.3217 7.73284 19.5673 8.0357 19.5673H17.2092C17.5121 19.5673 17.7576 19.3217 17.7576 19.0189V4.98053C17.7576 4.67767 17.5121 4.43215 17.2092 4.43215H13.4324ZM7.48733 16.3241H11.803C12.1058 16.3241 12.3513 16.0786 12.3513 15.7757V2.27789C12.3513 1.97503 12.1058 1.72952 11.803 1.72952H2.62945C2.32659 1.72952 2.08108 1.97503 2.08108 2.27789V15.7757C2.08108 16.0786 2.32659 16.3241 2.62945 16.3241H6.40625V16.3236H7.48733V16.3241Z" fill="black"/>
<path d="M6.40625 17.4052H6.70625V17.1052H6.40625V17.4052ZM13.4324 3.35107H13.1324V3.65107H13.4324V3.35107ZM13.4324 4.43215V4.13215H13.1324V4.43215H13.4324ZM7.48733 17.4052V17.1052H7.18733V17.4052H7.48733ZM7.48733 16.3241H7.18733V16.6241H7.48733V16.3241ZM6.40625 16.3241V16.6241H6.70625V16.3241H6.40625ZM6.40625 16.3236V16.0236H6.10625V16.3236H6.40625ZM7.48733 16.3236H7.78733V16.0236H7.48733V16.3236ZM2.62945 0.948438H11.803V0.348437H2.62945V0.948438ZM1.3 2.27789C1.3 1.54365 1.89522 0.948438 2.62945 0.948438V0.348437C1.56385 0.348437 0.7 1.21228 0.7 2.27789H1.3ZM1.3 15.7757V2.27789H0.7V15.7757H1.3ZM2.62945 17.1052C1.89521 17.1052 1.3 16.5099 1.3 15.7757H0.7C0.7 16.8413 1.56384 17.7052 2.62945 17.7052V17.1052ZM6.40625 17.1052H2.62945V17.7052H6.40625V17.1052ZM6.10625 17.4052V19.0189H6.70625V17.4052H6.10625ZM6.10625 19.0189C6.10625 20.0845 6.97009 20.9483 8.0357 20.9483V20.3483C7.30146 20.3483 6.70625 19.7531 6.70625 19.0189H6.10625ZM8.0357 20.9483H17.2092V20.3483H8.0357V20.9483ZM17.2092 20.9483C18.2748 20.9483 19.1387 20.0845 19.1387 19.0189H18.5387C18.5387 19.7531 17.9434 20.3483 17.2092 20.3483V20.9483ZM19.1387 19.0189V4.98053H18.5387V19.0189H19.1387ZM19.1387 4.98053C19.1387 3.91492 18.2748 3.05107 17.2092 3.05107V3.65107C17.9434 3.65107 18.5387 4.24629 18.5387 4.98053H19.1387ZM17.2092 3.05107H13.4324V3.65107H17.2092V3.05107ZM13.1324 2.27789V3.35107H13.7324V2.27789H13.1324ZM11.803 0.948438C12.5372 0.948438 13.1324 1.54365 13.1324 2.27789H13.7324C13.7324 1.21228 12.8686 0.348437 11.803 0.348437V0.948438ZM13.1324 4.43215V15.7757H13.7324V4.43215H13.1324ZM13.1324 15.7757C13.1324 16.5099 12.5372 17.1052 11.803 17.1052V17.7052C12.8686 17.7052 13.7324 16.8413 13.7324 15.7757H13.1324ZM11.803 17.1052H7.48733V17.7052H11.803V17.1052ZM7.78733 19.0189V17.4052H7.18733V19.0189H7.78733ZM8.0357 19.2673C7.89853 19.2673 7.78733 19.1561 7.78733 19.0189H7.18733C7.18733 19.4874 7.56716 19.8673 8.0357 19.8673V19.2673ZM17.2092 19.2673H8.0357V19.8673H17.2092V19.2673ZM17.4576 19.0189C17.4576 19.1561 17.3464 19.2673 17.2092 19.2673V19.8673C17.6778 19.8673 18.0576 19.4874 18.0576 19.0189H17.4576ZM17.4576 4.98053V19.0189H18.0576V4.98053H17.4576ZM17.2092 4.73215C17.3464 4.73215 17.4576 4.84335 17.4576 4.98053H18.0576C18.0576 4.51198 17.6778 4.13215 17.2092 4.13215V4.73215ZM13.4324 4.73215H17.2092V4.13215H13.4324V4.73215ZM7.48733 16.6241H11.803V16.0241H7.48733V16.6241ZM11.803 16.6241C12.2715 16.6241 12.6513 16.2443 12.6513 15.7757H12.0513C12.0513 15.9129 11.9401 16.0241 11.803 16.0241V16.6241ZM12.6513 15.7757V2.27789H12.0513V15.7757H12.6513ZM12.6513 2.27789C12.6513 1.80935 12.2715 1.42952 11.803 1.42952V2.02952C11.9401 2.02952 12.0513 2.14072 12.0513 2.27789H12.6513ZM11.803 1.42952H2.62945V2.02952H11.803V1.42952ZM2.62945 1.42952C2.16091 1.42952 1.78108 1.80934 1.78108 2.27789H2.38108C2.38108 2.14072 2.49228 2.02952 2.62945 2.02952V1.42952ZM1.78108 2.27789V15.7757H2.38108V2.27789H1.78108ZM1.78108 15.7757C1.78108 16.2443 2.16091 16.6241 2.62945 16.6241V16.0241C2.49228 16.0241 2.38108 15.9129 2.38108 15.7757H1.78108ZM2.62945 16.6241H6.40625V16.0241H2.62945V16.6241ZM6.10625 16.3236V16.3241H6.70625V16.3236H6.10625ZM7.48733 16.0236H6.40625V16.6236H7.48733V16.0236ZM7.78733 16.3241V16.3236H7.18733V16.3241H7.78733Z" fill="black" mask="url(#path-1-outside-1_1409_6493)"/>
</svg>
