<svg width="22" height="22" viewBox="0 0 22 22" fill="none" xmlns="http://www.w3.org/2000/svg">
<path fill-rule="evenodd" clip-rule="evenodd" d="M21.4229 21.0798L20.2058 16.5298C20.136 16.2748 20.1709 15.9998 20.2906 15.7598C21.3531 13.6248 21.7072 11.0748 21.0538 8.41484C20.1659 4.81484 17.3626 1.92484 13.7811 0.969844C12.8035 0.714844 11.8408 0.589844 10.908 0.589844C4.21395 0.589844 -1.01359 6.88484 0.792109 13.8898C1.63011 17.1298 5.08188 20.4848 8.32914 21.2748C9.20704 21.4898 10.07 21.5898 10.908 21.5898C12.7087 21.5898 14.3947 21.1248 15.8761 20.3248C16.0407 20.2348 16.2253 20.1848 16.4049 20.1848C16.4947 20.1848 16.5845 20.1948 16.6742 20.2198L21.0937 21.4048C21.1186 21.4098 21.1436 21.4148 21.1635 21.4148C21.3331 21.4148 21.4678 21.2548 21.4229 21.0798ZM18.8091 16.9048L19.4975 19.4798L17.0483 18.8248C16.8388 18.7698 16.6244 18.7398 16.4049 18.7398C15.9859 18.7398 15.5619 18.8498 15.1828 19.0548C13.851 19.7748 12.4144 20.1398 10.908 20.1398C10.1648 20.1398 9.41156 20.0448 8.66833 19.8648C5.91988 19.1948 2.8921 16.2348 2.19377 13.5248C1.4655 10.6948 2.03914 7.78984 3.76502 5.55484C5.49091 3.31984 8.0947 2.03984 10.908 2.03984C11.736 2.03984 12.579 2.14984 13.412 2.37484C16.4897 3.19484 18.879 5.64484 19.6521 8.76484C20.1958 10.9648 19.9714 13.1598 18.9987 15.1148C18.7194 15.6748 18.6495 16.3098 18.8091 16.9048Z" fill="black" stroke="black" stroke-width="0.7"/>
</svg>
