<svg width="23" height="21" viewBox="0 0 23 21" fill="none" xmlns="http://www.w3.org/2000/svg">
<path d="M11.4309 20.5898C11.0188 20.5898 10.6255 20.4533 10.293 20.1947C8.03594 18.4435 2.64142 14.0874 1.2881 11.4484C-0.481974 7.9996 0.581009 3.57033 3.65289 1.57521C4.64563 0.931307 5.76949 0.589844 6.91208 0.589844C8.62128 0.589844 10.2275 1.32155 11.4309 2.62399C12.6344 1.32155 14.2406 0.589844 15.9498 0.589844C17.0924 0.589844 18.2162 0.931307 19.209 1.57521C22.2809 3.57033 23.3438 7.9996 21.5784 11.4484C20.2251 14.0874 14.8306 18.4435 12.5735 20.1947C12.2364 20.4533 11.843 20.5898 11.4309 20.5898ZM6.91208 2.05326C6.03172 2.05326 5.16542 2.31667 4.39745 2.81423C1.93901 4.41423 1.09611 7.97521 2.52435 10.7557C3.77932 13.2045 9.42671 17.702 11.1266 19.0191C11.3045 19.1557 11.5527 19.1557 11.7306 19.0191C13.4305 17.6972 19.0779 13.1996 20.3328 10.7557C21.7611 7.97521 20.9182 4.40936 18.4597 2.81423C17.6964 2.31667 16.8301 2.05326 15.9498 2.05326C14.4092 2.05326 12.9669 2.83375 11.9929 4.18984L11.4309 4.98009L10.869 4.18984C9.89499 2.83375 8.45739 2.05326 6.91208 2.05326Z" fill="#262626" stroke="#262626" stroke-width="0.5"/>
</svg>
