<svg width="81" height="81" viewBox="0 0 81 81" fill="none" xmlns="http://www.w3.org/2000/svg">
<g clip-path="url(#clip0_860_14352)">
<rect x="1.10065" y="0.887609" width="70" height="70" rx="15" transform="matrix(0.994289 -0.106718 0.106364 0.994327 0.204845 8.12249)" stroke="white" stroke-width="2"/>
<path d="M18.2122 51.6425L6.41045 66.4685C5.91894 67.0859 5.6904 67.8721 5.77432 68.6567L6.84919 78.7049C7.02542 80.3524 8.50375 81.5446 10.1511 81.3677L77.7628 74.1109C79.4102 73.9341 80.6028 72.4552 80.4266 70.8078L77.5002 43.4506C77.3926 42.4445 76.785 41.5605 75.8843 41.0998L60.3544 33.1549C59.0291 32.4769 57.4068 32.8737 56.5434 34.087L39.0443 58.6796C38.106 59.9982 36.2914 60.3354 34.9428 59.4418L22.2165 51.0094C20.9199 50.1502 19.1813 50.4251 18.2122 51.6425Z" stroke="white" stroke-width="2"/>
<circle r="5.5" transform="matrix(0.994289 -0.106718 0.106364 0.994327 18.3457 21.6503)" stroke="white" stroke-width="2"/>
</g>
<defs>
<clipPath id="clip0_860_14352">
<rect width="72.5535" height="72.673" rx="16" transform="matrix(0.994289 -0.106718 0.106364 0.994327 0.292969 8)" fill="white"/>
</clipPath>
</defs>
</svg>
