<svg width="262" height="76" viewBox="0 0 262 76" fill="none" xmlns="http://www.w3.org/2000/svg">
<path fill-rule="evenodd" clip-rule="evenodd" d="M14.2717 1.06901C8.93802 3.33771 3.05953 9.73131 1.20983 17.762C-1.13397 27.9324 8.63396 32.2378 9.44479 30.8328C10.3696 29.1699 7.68377 28.6027 7.12633 23.3306C6.40419 16.5116 9.54614 8.89344 13.4863 5.55484C14.2211 4.93611 14.1831 5.79976 14.1831 7.39816C14.1831 10.2598 14.031 35.9244 14.031 41.2739C14.031 48.5183 13.7396 50.8128 13.2075 53.0686C12.6628 55.363 11.8013 56.9099 12.46 57.5028C13.1949 58.1731 16.3241 56.5876 18.1232 54.0224C20.2896 50.9545 21.0497 47.2679 21.1891 43.2719C21.3538 38.438 21.3411 30.7941 21.3538 26.4243C21.3538 22.4154 21.4172 10.6981 21.2905 3.64708C21.2398 1.93266 16.5142 0.128018 14.2717 1.06901ZM260.649 39.1341C259.876 39.1341 259.522 39.9462 259.23 41.2997C258.217 46.0304 257.152 47.1003 255.771 47.1003C254.238 47.1003 252.858 44.7543 252.503 40.0622C252.224 36.3756 252.262 29.5824 252.617 22.8279C252.693 21.4357 252.313 20.0693 248.639 18.7159C247.055 18.1358 244.749 17.2721 243.609 20.0822C240.378 27.984 239.111 34.2616 238.807 36.8139C238.795 36.9428 238.63 36.9686 238.605 36.6721C238.415 34.6225 237.997 30.9101 237.933 23.1115C237.921 21.5904 237.604 20.2885 235.944 19.2315C234.867 18.5483 231.599 17.3237 230.42 18.7803C229.407 19.9662 228.216 23.1501 226.987 26.927C225.986 29.9949 225.302 32.0702 225.302 32.0702C225.302 32.0702 225.315 23.7818 225.327 20.6494C225.327 19.4635 224.529 19.0768 224.289 18.9994C223.199 18.6772 221.045 18.1487 220.133 18.1487C219.006 18.1487 218.739 18.7803 218.739 19.7084C218.739 19.8244 218.562 30.6136 218.562 38.1545V39.2244C217.941 42.6919 215.927 47.3968 213.735 47.3968C211.531 47.3968 210.504 45.4375 210.504 36.44C210.504 31.1937 210.657 28.9121 210.733 25.1223C210.771 22.9439 210.859 21.2553 210.859 20.8814C210.847 19.7084 208.845 19.1283 207.92 18.9092C206.982 18.6901 206.172 18.5998 205.538 18.6385C204.639 18.6901 204.005 19.283 204.005 20.108C204.005 20.5463 204.005 21.3842 204.005 21.3842C202.852 19.5537 201.003 18.2776 199.761 17.9038C196.442 16.9112 192.97 17.7878 190.348 21.5002C188.27 24.4392 187.016 27.7778 186.522 32.573C186.154 36.0791 186.281 39.6368 186.914 42.6403C186.142 46.0304 184.697 47.4226 183.126 47.4226C180.846 47.4226 179.186 43.6457 179.376 37.1103C179.503 32.8179 180.352 29.8015 181.277 25.4317C181.669 23.5755 181.353 22.5958 180.542 21.6677C179.807 20.817 178.223 20.3787 175.956 20.9072C174.347 21.2939 172.028 21.7064 169.925 22.0158C169.925 22.0158 170.052 21.5002 170.153 20.5978C170.698 15.8413 165.592 16.228 163.958 17.7491C162.982 18.6643 162.324 19.7342 162.07 21.6549C161.678 24.7099 164.135 26.1536 164.135 26.1536C163.325 29.8918 161.348 34.7772 159.308 38.3091C158.219 40.204 157.37 41.6091 156.293 43.0915C156.293 42.5372 156.293 41.9829 156.28 41.4286C156.255 33.5655 156.356 27.3782 156.407 25.1481C156.445 22.9697 156.534 21.3326 156.534 20.9459C156.521 20.0951 156.027 19.7729 155.001 19.3604C154.089 18.9994 153.024 18.7545 151.91 18.6643C150.516 18.5483 149.667 19.3088 149.692 20.1982C149.692 20.3658 149.692 21.397 149.692 21.397C148.54 19.5666 146.69 18.2905 145.448 17.9167C142.129 16.9241 138.658 17.8006 136.035 21.5131C133.957 24.4521 132.602 28.5898 132.209 32.5472C131.854 36.2338 131.918 39.3661 132.412 42.0087C131.88 44.6512 130.359 47.4226 128.649 47.4226C126.457 47.4226 125.203 45.4633 125.203 36.4658C125.203 31.2195 125.355 28.9379 125.431 25.1481C125.482 22.9697 125.558 21.281 125.558 20.9072C125.545 19.7342 123.543 19.1541 122.618 18.935C121.643 18.703 120.807 18.6256 120.161 18.6772C119.312 18.7416 118.716 19.5151 118.716 20.0822V21.4099C117.563 19.5795 115.701 18.3034 114.472 17.9296C111.153 16.937 107.707 17.8393 105.072 21.5259C103.349 23.9364 101.955 26.6047 101.246 32.5085C101.03 34.21 100.942 35.8084 100.954 37.3037C100.27 41.5575 97.2421 46.4429 94.7716 46.4429C93.3274 46.4429 91.9464 43.5942 91.9464 37.5357C91.9464 29.4535 92.4405 17.9553 92.5292 16.8468C92.5292 16.8468 95.6585 16.7952 96.2666 16.7823C97.8249 16.7694 99.2439 16.8081 101.322 16.6921C102.36 16.6405 103.361 12.8508 102.297 12.3867C101.803 12.1676 98.357 11.9871 96.9887 11.9613C95.8992 11.8969 92.6939 11.652 92.6939 11.652C92.6939 11.652 92.9853 4.0209 93.0486 3.2088C93.0993 2.53851 92.2378 2.19047 91.7564 1.98422C90.5528 1.46861 89.4886 1.2237 88.2217 0.965889C86.4607 0.59207 85.6752 0.952999 85.5105 2.46117C85.2698 4.72986 85.1557 11.407 85.1557 11.407C83.8635 11.407 79.4673 11.1492 78.1877 11.1492C76.9841 11.1492 75.7045 16.3569 77.3515 16.4214C79.2519 16.4987 82.5712 16.5632 84.7757 16.6276C84.7757 16.6276 84.6743 28.3191 84.6743 31.9284C84.6743 32.3023 84.6743 32.6761 84.6743 33.037C83.4707 39.4306 79.2012 42.8723 79.2012 42.8723C80.1134 38.6443 78.251 35.4733 74.881 32.7921C73.6395 31.7995 71.1943 29.9304 68.4451 27.868C68.4451 27.868 70.0288 26.2825 71.4477 23.0986C72.4486 20.8428 72.4866 18.2518 70.0414 17.6846C66 16.7436 62.6553 19.7471 61.6671 22.9697C60.8943 25.4575 61.3124 27.3008 62.82 29.2215C62.9213 29.3633 63.048 29.5051 63.1747 29.6469C62.2626 31.4386 61.0083 33.8362 59.9441 35.6924C56.9922 40.8614 54.7624 44.9477 53.0774 44.9477C51.7345 44.9477 51.7471 40.797 51.7471 36.917C51.7471 33.5655 51.9879 28.5383 52.1906 23.3177C52.2539 21.5904 51.4051 20.6107 49.9735 19.7213C49.112 19.1799 47.2623 18.11 46.1854 18.11C44.5764 18.11 39.9521 18.3292 35.5813 31.1421C35.0365 32.7534 33.947 35.7053 33.947 35.7053L34.0356 20.3014C34.0356 19.9404 33.8456 19.5924 33.4149 19.3475C32.68 18.935 30.7037 18.11 28.9553 18.11C28.1191 18.11 27.7011 18.5096 27.7011 19.2959L27.549 43.4008C27.549 45.2312 27.5997 47.371 27.7771 48.2991C27.9544 49.2272 28.2458 50.0007 28.6006 50.4518C28.9553 50.903 29.3734 51.251 30.0449 51.3928C30.6783 51.5217 34.1497 51.9729 34.327 50.6323C34.5424 49.021 34.5551 47.2808 36.3794 40.797C39.2173 30.691 42.9167 25.7669 44.6524 24.0138C44.9565 23.7044 45.3112 23.6915 45.2859 24.1942C45.2099 26.4114 44.9565 31.9542 44.7791 36.6463C44.3103 49.2272 46.5655 51.5604 49.7961 51.5604C52.2666 51.5604 55.7506 49.0726 59.488 42.7821C61.8191 38.8634 64.0742 35.0092 65.7086 32.2378C66.8361 33.2948 68.1157 34.4421 69.3826 35.6537C72.3345 38.4896 73.2974 41.1837 72.6639 43.736C72.1698 45.6953 70.3201 47.7062 67.0262 45.7469C66.0633 45.1797 65.6579 44.7414 64.695 44.084C64.1756 43.736 63.3774 43.6328 62.9087 44.0067C61.6798 44.9477 60.9703 46.1465 60.5649 47.6288C60.1721 49.0726 61.6038 49.8331 63.0734 50.5034C64.353 51.0835 67.0895 51.5991 68.8378 51.6635C75.6412 51.8955 81.0889 48.3378 84.8897 39.1599C85.5738 47.0875 88.4624 51.5733 93.4794 51.5733C96.8367 51.5733 100.207 47.1777 101.676 42.8594C102.094 44.6254 102.728 46.1594 103.526 47.4484C107.403 53.6615 114.903 52.3209 118.678 47.0488C119.844 45.4246 120.021 44.8316 120.021 44.8316C120.566 49.8073 124.532 51.5475 126.799 51.5475C129.333 51.5475 131.956 50.3358 133.793 46.1465C134.008 46.5976 134.249 47.0359 134.502 47.4484C138.366 53.6615 145.879 52.3209 149.642 47.0488C149.819 46.8039 149.971 46.5847 150.111 46.3785L150.225 49.6526C150.225 49.6526 148.071 51.6506 146.753 52.8752C140.938 58.2762 136.517 62.3754 136.187 67.1448C135.769 73.229 140.647 75.4848 144.333 75.7813C148.248 76.0907 151.606 73.9122 153.658 70.8443C155.47 68.1502 156.661 62.3367 156.572 56.6134C156.534 54.3189 156.483 51.4057 156.432 48.2734C158.472 45.8758 160.778 42.8336 162.894 39.2888C165.2 35.4088 167.683 30.214 168.95 26.1665C168.95 26.1665 171.103 26.1794 173.396 26.0376C174.131 25.9989 174.334 26.1407 174.207 26.6821C174.043 27.3395 171.306 38.0256 173.802 45.141C175.512 50.0136 179.364 51.5862 181.644 51.5862C184.317 51.5862 186.876 49.5495 188.245 46.5074C188.409 46.8425 188.587 47.1648 188.777 47.4742C192.641 53.6873 200.128 52.3338 203.929 47.0746C204.791 45.8887 205.272 44.8574 205.272 44.8574C206.083 50.0136 210.048 51.5991 212.316 51.5991C214.673 51.5991 216.915 50.6194 218.739 46.2625C218.815 48.1831 218.942 49.7557 219.12 50.2456C219.234 50.5421 219.905 50.9288 220.399 51.1092C222.566 51.9213 224.757 51.5346 225.581 51.367C226.151 51.251 226.582 50.787 226.645 49.614C226.797 46.5074 226.708 41.2739 227.633 37.3939C229.192 30.8714 230.648 28.3449 231.345 27.0946C231.725 26.3985 232.169 26.2825 232.181 27.0172C232.219 28.5254 232.295 32.921 232.891 38.8505C233.334 43.2075 233.93 45.7855 234.386 46.5976C235.691 48.9308 237.3 49.0339 238.605 49.0339C239.441 49.0339 241.177 48.8019 241.025 47.3195C240.949 46.5976 241.088 42.1376 242.621 35.7053C243.634 31.5159 245.307 27.7262 245.915 26.3469C246.143 25.8313 246.244 26.2438 246.244 26.3211C246.118 29.2086 245.826 38.6443 246.992 43.8133C248.563 50.8128 253.124 51.5862 254.707 51.5862C258.09 51.5862 260.864 48.9823 261.802 42.1118C261.979 40.4232 261.65 39.1341 260.649 39.1341ZM118.716 34.8932C118.526 38.5283 117.817 41.5704 116.702 43.7746C114.662 47.7706 110.646 49.0339 108.872 43.259C107.593 39.0955 108.024 33.4237 108.556 30.3558C109.341 25.8055 111.318 22.583 114.409 22.8923C117.589 23.2146 119.122 27.3395 118.716 34.8932ZM149.692 34.9448C149.515 38.3736 148.628 41.8282 147.678 43.7746C145.702 47.7964 141.559 49.0597 139.849 43.259C138.683 39.3017 138.962 34.1842 139.532 30.9617C140.279 26.7723 142.104 22.8923 145.385 22.8923C148.578 22.8923 150.149 26.4372 149.692 34.9448ZM150.503 58.3665C150.465 64.6312 149.49 70.1096 147.399 71.708C144.435 73.9638 140.457 72.2751 141.28 67.712C142.015 63.6644 145.448 59.5395 150.503 54.4994C150.516 54.4865 150.516 55.6337 150.503 58.3665ZM203.967 34.9834C203.79 38.7474 202.966 41.6993 201.953 43.7746C199.976 47.7964 195.859 49.0468 194.123 43.259C193.173 40.1138 193.135 34.8416 193.819 30.4461C194.516 25.9731 196.454 22.583 199.672 22.8923C202.827 23.2017 204.309 27.3395 203.967 34.9834Z" fill="black"/>
</svg>
