<svg width="36" height="37" viewBox="0 0 36 37" fill="none" xmlns="http://www.w3.org/2000/svg">
<g filter="url(#filter0_d_846_14628)">
<path fill-rule="evenodd" clip-rule="evenodd" d="M16 2.5C23.732 2.5 30 8.76801 30 16.5C30 24.232 23.732 30.5 16 30.5C8.26801 30.5 2 24.232 2 16.5C2 8.76801 8.26801 2.5 16 2.5ZM17.2929 9.79289C17.6834 9.40237 18.3166 9.40237 18.7071 9.79289C19.0976 10.1834 19.0976 10.8166 18.7071 11.2071L13.4142 16.5L18.7071 21.7929C19.0976 22.1834 19.0976 22.8166 18.7071 23.2071C18.3166 23.5976 17.6834 23.5976 17.2929 23.2071L11.2929 17.2071L10.5858 16.5L11.2929 15.7929L17.2929 9.79289Z" fill="white"/>
</g>
<defs>
<filter id="filter0_d_846_14628" x="0" y="0.5" width="36" height="36" filterUnits="userSpaceOnUse" color-interpolation-filters="sRGB">
<feFlood flood-opacity="0" result="BackgroundImageFix"/>
<feColorMatrix in="SourceAlpha" type="matrix" values="0 0 0 0 0 0 0 0 0 0 0 0 0 0 0 0 0 0 127 0" result="hardAlpha"/>
<feOffset dx="2" dy="2"/>
<feGaussianBlur stdDeviation="2"/>
<feComposite in2="hardAlpha" operator="out"/>
<feColorMatrix type="matrix" values="0 0 0 0 0.420833 0 0 0 0 0.420833 0 0 0 0 0.420833 0 0 0 0.25 0"/>
<feBlend mode="normal" in2="BackgroundImageFix" result="effect1_dropShadow_846_14628"/>
<feBlend mode="normal" in="SourceGraphic" in2="effect1_dropShadow_846_14628" result="shape"/>
</filter>
</defs>
</svg>
