<svg width="23" height="21" viewBox="0 0 23 21" fill="none" xmlns="http://www.w3.org/2000/svg">
<path fill-rule="evenodd" clip-rule="evenodd" d="M22.3045 1.07771C22.1391 0.772793 21.8228 0.589844 21.4821 0.589844L1.38991 0.605089C0.986019 0.605089 0.635658 0.864267 0.49454 1.25557C0.392351 1.54016 0.416682 1.84508 0.552934 2.09409C0.606461 2.18557 0.674587 2.27196 0.757311 2.34819L8.49931 9.32057L10.3874 19.7944C10.4604 20.206 10.7621 20.511 11.1611 20.577C11.5552 20.6431 11.9445 20.45 12.1489 20.0892L22.2996 2.06868C22.4748 1.75868 22.4748 1.38262 22.3045 1.07771ZM2.75729 2.11442H19.1172L9.26816 7.98403L2.75729 2.11442ZM11.5747 18.097L9.98835 9.29516L19.852 3.42047L11.5747 18.097Z" fill="#262626" stroke="#262626" stroke-width="0.5"/>
</svg>
