<svg width="21" height="21" viewBox="0 0 21 21" fill="none" xmlns="http://www.w3.org/2000/svg">
<path fill-rule="evenodd" clip-rule="evenodd" d="M8.74375 1.96094C9.26 0.210937 11.74 0.210937 12.2562 1.96094L12.3813 2.38594C12.4584 2.64793 12.5932 2.88934 12.7758 3.09245C12.9583 3.29557 13.1841 3.45524 13.4364 3.55977C13.6887 3.66429 13.9612 3.71101 14.2339 3.69651C14.5067 3.682 14.7727 3.60664 15.0125 3.47594L15.4012 3.26469C17.0037 2.39094 18.7575 4.14469 17.885 5.74844L17.6725 6.13594C17.5418 6.37575 17.4664 6.64177 17.4519 6.91449C17.4374 7.18722 17.4841 7.45974 17.5887 7.71206C17.6932 7.96438 17.8529 8.1901 18.056 8.37268C18.2591 8.55525 18.5005 8.69005 18.7625 8.76719L19.1875 8.89219C20.9375 9.40844 20.9375 11.8884 19.1875 12.4047L18.7625 12.5297C18.5005 12.6068 18.2591 12.7416 18.056 12.9242C17.8529 13.1068 17.6932 13.3325 17.5887 13.5848C17.4841 13.8371 17.4374 14.1097 17.4519 14.3824C17.4664 14.6551 17.5418 14.9211 17.6725 15.1609L17.8838 15.5497C18.7575 17.1522 17.0037 18.9059 15.4 18.0334L15.0125 17.8209C14.7727 17.6902 14.5067 17.6149 14.2339 17.6004C13.9612 17.5859 13.6887 17.6326 13.4364 17.7371C13.1841 17.8416 12.9583 18.0013 12.7758 18.2044C12.5932 18.4075 12.4584 18.6489 12.3813 18.9109L12.2562 19.3359C11.74 21.0859 9.26 21.0859 8.74375 19.3359L8.61875 18.9109C8.54162 18.6489 8.40682 18.4075 8.22424 18.2044C8.04166 18.0013 7.81594 17.8416 7.56362 17.7371C7.3113 17.6326 7.03878 17.5859 6.76606 17.6004C6.49333 17.6149 6.22731 17.6902 5.9875 17.8209L5.59875 18.0322C3.99625 18.9059 2.2425 17.1522 3.115 15.5484L3.3275 15.1609C3.4582 14.9211 3.53356 14.6551 3.54807 14.3824C3.56258 14.1097 3.51585 13.8371 3.41133 13.5848C3.30681 13.3325 3.14713 13.1068 2.94402 12.9242C2.7409 12.7416 2.49949 12.6068 2.2375 12.5297L1.8125 12.4047C0.0625 11.8884 0.0625 9.40844 1.8125 8.89219L2.2375 8.76719C3.35625 8.43719 3.885 7.16094 3.3275 6.13594L3.11625 5.74719C2.2425 4.14469 3.99625 2.39094 5.6 3.26344L5.9875 3.47594C6.22731 3.60664 6.49333 3.682 6.76606 3.69651C7.03878 3.71101 7.3113 3.66429 7.56362 3.55977C7.81594 3.45524 8.04166 3.29557 8.22424 3.09245C8.40682 2.88934 8.54162 2.64793 8.61875 2.38594L8.74375 1.96094ZM10.5 16.6484C13.8137 16.6484 16.5 13.9621 16.5 10.6484C16.5 7.33473 13.8137 4.64844 10.5 4.64844C7.18629 4.64844 4.5 7.33473 4.5 10.6484C4.5 13.9621 7.18629 16.6484 10.5 16.6484Z" fill="#595959"/>
</svg>
