<svg width="20" height="20" viewBox="0 0 20 20" fill="none" xmlns="http://www.w3.org/2000/svg">
<path d="M10.4116 1.0945L10.0442 1.43359L10.0442 1.43359L10.4116 1.0945ZM10.0497 0.933625L10.0553 0.433655L10.0497 0.933625ZM12.1917 3.02341L11.8243 3.3625L11.9728 3.52341H12.1917V3.02341ZM7.81553 3.02341V3.52341H8.02791L8.17536 3.37057L7.81553 3.02341ZM9.68434 1.08643L10.0442 1.43359V1.43359L9.68434 1.08643ZM8.38773 3.87057L8.02791 3.52341L8.0279 3.52341L8.38773 3.87057ZM10.0361 2.16209L10.4035 1.82299L10.0442 1.43359L9.67626 1.81492L10.0361 2.16209ZM3.60948 18.0701V18.5701H4.05919L4.10669 18.1229L3.60948 18.0701ZM15.953 18.0701L15.4558 18.1229L15.5033 18.5701H15.953V18.0701ZM11.6053 3.8625L11.9728 3.52341V3.52341L11.6053 3.8625ZM14.9457 18.0701V18.5701H15.5182L15.4411 18.0028L14.9457 18.0701ZM4.61677 18.0701L4.12132 18.0028L4.04425 18.5701H4.61677V18.0701ZM10.7791 0.755401C10.5924 0.5531 10.3305 0.436709 10.0553 0.433655L10.0442 1.43359L10.0442 1.43359L10.7791 0.755401ZM12.5592 2.68431L10.7791 0.755401L10.0442 1.43359L11.8243 3.3625L12.5592 2.68431ZM16.5476 2.52341H12.1917V3.52341H16.5476V2.52341ZM19.5476 5.52341C19.5476 3.86655 18.2044 2.52341 16.5476 2.52341V3.52341C17.6521 3.52341 18.5476 4.41884 18.5476 5.52341H19.5476ZM19.5476 16.5701V5.52341H18.5476V16.5701H19.5476ZM16.5476 19.5701C18.2044 19.5701 19.5476 18.2269 19.5476 16.5701H18.5476C18.5476 17.6746 17.6521 18.5701 16.5476 18.5701V19.5701ZM3.45312 19.5701H16.5476V18.5701H3.45312V19.5701ZM0.453125 16.5701C0.453125 18.2269 1.79627 19.5701 3.45312 19.5701V18.5701C2.34856 18.5701 1.45312 17.6746 1.45312 16.5701H0.453125ZM0.453125 5.52341V16.5701H1.45312V5.52341H0.453125ZM3.45312 2.52341C1.79627 2.52341 0.453125 3.86655 0.453125 5.52341H1.45312C1.45312 4.41884 2.34855 3.52341 3.45312 3.52341V2.52341ZM7.81553 2.52341H3.45312V3.52341H7.81553V2.52341ZM9.32451 0.739264L7.4557 2.67624L8.17536 3.37057L10.0442 1.43359L9.32451 0.739264ZM10.0553 0.433655C9.78 0.430602 9.51565 0.541156 9.32451 0.739265L10.0442 1.43359L10.0442 1.43359L10.0553 0.433655ZM8.74756 4.21774L10.3959 2.50925L9.67626 1.81492L8.02791 3.52341L8.74756 4.21774ZM8.02791 4.52341C8.29933 4.52341 8.5591 4.41307 8.74756 4.21774L8.0279 3.52341L8.02791 3.52341V4.52341ZM3.45312 4.52341H8.02791V3.52341H3.45312V4.52341ZM2.45312 5.52341C2.45312 4.97112 2.90084 4.52341 3.45312 4.52341V3.52341C2.34855 3.52341 1.45312 4.41884 1.45312 5.52341H2.45312ZM2.45312 16.5701V5.52341H1.45312V16.5701H2.45312ZM3.45312 17.5701C2.90084 17.5701 2.45312 17.1224 2.45312 16.5701H1.45312C1.45312 17.6746 2.34856 18.5701 3.45312 18.5701V17.5701ZM3.60948 17.5701H3.45312V18.5701H3.60948V17.5701ZM4.10669 18.1229C4.32951 16.0251 6.10555 14.3904 8.26271 14.3904V13.3904C5.58872 13.3904 3.38855 15.4163 3.11228 18.0173L4.10669 18.1229ZM8.26271 14.3904H11.2997V13.3904H8.26271V14.3904ZM11.2997 14.3904C13.4569 14.3904 15.2329 16.0251 15.4558 18.1229L16.4502 18.0173C16.1739 15.4163 13.9737 13.3904 11.2997 13.3904V14.3904ZM16.5476 17.5701H15.953V18.5701H16.5476V17.5701ZM17.5476 16.5701C17.5476 17.1224 17.0998 17.5701 16.5476 17.5701V18.5701C17.6521 18.5701 18.5476 17.6746 18.5476 16.5701H17.5476ZM17.5476 5.52341V16.5701H18.5476V5.52341H17.5476ZM16.5476 4.52341C17.0998 4.52341 17.5476 4.97112 17.5476 5.52341H18.5476C18.5476 4.41884 17.6521 3.52341 16.5476 3.52341V4.52341ZM11.9728 4.52341H16.5476V3.52341H11.9728V4.52341ZM11.2379 4.2016C11.4272 4.40674 11.6936 4.52341 11.9728 4.52341V3.52341L11.9728 3.52341L11.2379 4.2016ZM9.66865 2.50119L11.2379 4.2016L11.9728 3.52341L10.4035 1.82299L9.66865 2.50119ZM15.4411 18.0028C15.164 15.9626 13.4159 14.3904 11.2997 14.3904V15.3904C12.9088 15.3904 14.2395 16.5862 14.4502 18.1374L15.4411 18.0028ZM11.2997 14.3904H8.26271V15.3904H11.2997V14.3904ZM8.26271 14.3904C6.1466 14.3904 4.3985 15.9626 4.12132 18.0028L5.11222 18.1374C5.32296 16.5862 6.65361 15.3904 8.26271 15.3904V14.3904ZM14.9457 17.5701H4.61677V18.5701H14.9457V17.5701ZM11.9629 9.37461C11.9629 10.3292 11.1297 11.2183 9.95637 11.2183V12.2183C11.6424 12.2183 12.9629 10.9203 12.9629 9.37461H11.9629ZM9.95637 7.53091C11.1297 7.53091 11.9629 8.42006 11.9629 9.37461H12.9629C12.9629 7.82894 11.6424 6.53091 9.95637 6.53091V7.53091ZM7.94982 9.37461C7.94982 8.42006 8.78301 7.53091 9.95637 7.53091V6.53091C8.27038 6.53091 6.94982 7.82894 6.94982 9.37461H7.94982ZM9.95637 11.2183C8.78301 11.2183 7.94982 10.3292 7.94982 9.37461H6.94982C6.94982 10.9203 8.27038 12.2183 9.95637 12.2183V11.2183ZM12.9629 9.37461C12.9629 10.923 11.6395 12.2183 9.95637 12.2183V13.2183C12.1465 13.2183 13.9629 11.5196 13.9629 9.37461H12.9629ZM9.95637 6.53091C11.6395 6.53091 12.9629 7.82622 12.9629 9.37461H13.9629C13.9629 7.22965 12.1465 5.53091 9.95637 5.53091V6.53091ZM6.94982 9.37461C6.94982 7.82622 8.27322 6.53091 9.95637 6.53091V5.53091C7.76629 5.53091 5.94982 7.22965 5.94982 9.37461H6.94982ZM9.95637 12.2183C8.27322 12.2183 6.94982 10.923 6.94982 9.37461H5.94982C5.94982 11.5196 7.76629 13.2183 9.95637 13.2183V12.2183Z" fill="#8F8F8F"/>
</svg>
