<svg width="21" height="21" viewBox="0 0 21 21" fill="none" xmlns="http://www.w3.org/2000/svg">
<path fill-rule="evenodd" clip-rule="evenodd" d="M1.80397 0.689385C1.4525 0.337913 0.882654 0.337913 0.531182 0.689385C0.17971 1.04086 0.17971 1.61071 0.531182 1.96218L9.15797 10.589L0.531269 19.2157C0.179797 19.5671 0.179797 20.137 0.531269 20.4885C0.882741 20.8399 1.45259 20.8399 1.80406 20.4885L10.4308 11.8618L19.0574 20.4884C19.4089 20.8398 19.9787 20.8398 20.3302 20.4884C20.6816 20.1369 20.6816 19.5671 20.3302 19.2156L11.7036 10.589L20.3303 1.96226C20.6817 1.61079 20.6817 1.04094 20.3303 0.68947C19.9788 0.337999 19.4089 0.337998 19.0575 0.68947L10.4308 9.31617L1.80397 0.689385Z" fill="#FAFAFA"/>
</svg>
